<svg width="24" height="24" viewBox="0 0 24 24" fill="none" xmlns="http://www.w3.org/2000/svg">
<path fill-rule="evenodd" clip-rule="evenodd" d="M11.25 3.75V1.5H12.75V3.75H11.25ZM17.1464 16.3679C17.6798 17.0156 18 17.8454 18 18.7499C18 20.821 16.3211 22.4999 14.25 22.4999L14.2225 22.4998H8.65406V22.4998L8.62501 22.4998C5.5184 22.4998 3 19.9814 3 16.8748C3 15.0301 3.88798 13.3928 5.25981 12.3671C5.2533 12.2455 5.25 12.1232 5.25 12C5.25 8.27208 8.27208 5.25 12 5.25C15.7279 5.25 18.75 8.27208 18.75 12C18.75 13.6658 18.1466 15.1906 17.1464 16.3679ZM15.9812 15.4225C15.4633 15.1525 14.8745 14.9999 14.25 14.9999C13.6159 14.9999 13.0185 15.1573 12.4949 15.4351C12.6619 15.8834 12.7531 16.3685 12.7531 16.875C12.7531 16.9418 12.7515 17.0082 12.7484 17.0743C13.1467 16.7171 13.673 16.4999 14.25 16.4999C15.4927 16.4999 16.5 17.5073 16.5 18.7499C16.5 19.9926 15.4927 20.9999 14.25 20.9999V20.9998H14.2287L14.1999 20.9994H8.68748C8.66669 20.9997 8.64587 20.9998 8.62501 20.9998C6.34683 20.9998 4.5 19.153 4.5 16.8748C4.5 14.5966 6.34683 12.7498 8.62501 12.7498C10.3973 12.7498 11.9085 13.8675 12.4923 15.4365C12.9289 15.2044 13.4168 15.0561 13.9346 15.0129C13.1661 12.8214 11.0791 11.2498 8.62501 11.2498C7.97424 11.2498 7.34928 11.3603 6.76788 11.5636C6.98967 8.86829 9.24746 6.75 12 6.75C14.8995 6.75 17.25 9.1005 17.25 12C17.25 13.3076 16.772 14.5035 15.9812 15.4225ZM22.5 11.25H20.25V12.75H22.5V11.25ZM18.7697 7.22548L20.7182 6.10048L21.4682 7.39952L19.5197 8.52452L18.7697 7.22548ZM16.6005 2.5318L15.4755 4.48036L16.7746 5.23036L17.8996 3.2818L16.6005 2.5318ZM7.22548 5.23036L6.10048 3.2818L7.39952 2.5318L8.52452 4.48036L7.22548 5.23036ZM2.53175 7.39952L4.48031 8.52452L5.23031 7.22548L3.28175 6.10048L2.53175 7.39952ZM1.5 11.25H3.75V12.75H1.5V11.25ZM18.7697 16.7745L20.7183 17.8995L21.4683 16.6005L19.5197 15.4755L18.7697 16.7745Z" fill="#0C0C0C"/>
</svg>
