<svg width="32" height="32" viewBox="0 0 32 32" fill="none" xmlns="http://www.w3.org/2000/svg">
<g id="notifications_none" clip-path="url(#clip0_1864_7578)">
<path id="Vector" d="M16.0007 29.334C17.4673 29.334 18.6673 28.134 18.6673 26.6673H13.334C13.334 28.134 14.534 29.334 16.0007 29.334ZM24.0007 21.334V14.6673C24.0007 10.574 21.8273 7.14732 18.0007 6.24065V5.33398C18.0007 4.22732 17.1073 3.33398 16.0007 3.33398C14.894 3.33398 14.0007 4.22732 14.0007 5.33398V6.24065C10.1873 7.14732 8.00065 10.5607 8.00065 14.6673V21.334L5.33398 24.0007V25.334H26.6673V24.0007L24.0007 21.334ZM21.334 22.6673H10.6673V14.6673C10.6673 11.3607 12.6807 8.66732 16.0007 8.66732C19.3207 8.66732 21.334 11.3607 21.334 14.6673V22.6673Z" fill="#323232"/>
</g>
<defs>
<clipPath id="clip0_1864_7578">
<rect width="32" height="32" fill="white"/>
</clipPath>
</defs>
</svg>
