<svg width="16" height="16" viewBox="0 0 16 16" fill="none" xmlns="http://www.w3.org/2000/svg">
<g id="wall" clip-path="url(#clip0_1866_7845)">
<path id="Vector" d="M0.820312 13.3906L0.820313 12.2293H11.7251C11.7251 12.5373 11.6252 12.8327 11.4473 13.0505C11.2693 13.2683 11.028 13.3906 10.7764 13.3906H0.820312Z" fill="black"/>
<path id="Vector_2" d="M10.7754 7.08203H11.7124V12.229C11.7124 12.3815 11.6879 12.5325 11.6402 12.6734C11.5925 12.8143 11.5226 12.9423 11.4345 13.0501C11.3464 13.158 11.2419 13.2435 11.1267 13.3019C11.0116 13.3602 10.8883 13.3903 10.7637 13.3903V7.08203H10.7754Z" fill="black"/>
<path id="Vector_3" d="M0.832031 15.5267L0.832031 10.0356C0.832031 9.77432 0.658976 9.5625 0.445501 9.5625H0.386936C0.173461 9.5625 0.000406027 9.77432 0.000406027 10.0356L0.000406027 15.5267C0.000406027 15.788 0.173461 15.9998 0.386936 15.9998H0.445501C0.658976 15.9998 0.832031 15.788 0.832031 15.5267Z" fill="black"/>
<path id="Vector_4" d="M14.6524 0.185547H7.84708L6.67578 7.09594H15.8237L14.6524 0.185547ZM7.91736 6.16404L8.77241 1.11745H13.727L14.5821 6.16404H7.91736Z" fill="black" stroke="black" stroke-width="0.25" stroke-miterlimit="10"/>
</g>
<defs>
<clipPath id="clip0_1866_7845">
<rect width="16" height="16" fill="white"/>
</clipPath>
</defs>
</svg>
