<svg width="24" height="24" viewBox="0 0 24 24" fill="none" xmlns="http://www.w3.org/2000/svg">
<path id="Vector" d="M23.5787 16.8837L21.3082 15.7674L23.0921 15.3488C23.5787 15.2093 23.903 14.7907 23.7408 14.3721C23.5787 13.9535 23.0921 13.6744 22.7678 13.814L20.8217 14.2326C19.8487 14.5116 18.8757 14.3721 18.0648 13.9535C17.2539 13.5349 16.7674 12.8372 16.7674 12V11.7209C16.7674 10.8837 17.2539 10.186 18.0648 9.76744C18.8757 9.34884 19.8487 9.2093 20.8217 9.48837C23.0921 10.0465 22.93 10.0465 23.0921 10.0465C23.4165 10.0465 23.7408 9.76744 23.903 9.48837C24.0652 9.06977 23.7408 8.65116 23.2543 8.51163L21.4704 8.09302L23.5787 6.97674C24.0652 6.83721 24.0652 6.27907 23.903 6C23.7408 5.5814 23.0921 5.5814 22.7678 5.72093L20.4974 6.83721L20.9839 5.30233C21.1461 4.88372 20.8217 4.46512 20.3352 4.32558C19.8487 4.18605 19.3622 4.46512 19.3622 4.88372L18.8757 6.69767C18.7135 7.53488 18.0648 8.09302 17.2539 8.51163C16.4431 8.93023 15.47 8.93023 14.6592 8.51163L14.497 8.37209C13.6861 7.95349 13.1996 7.25581 13.1996 6.4186C13.1996 5.5814 13.524 4.74419 14.3348 4.18605L15.7944 2.93023C16.1187 2.65116 16.1187 2.23256 15.7944 1.81395C15.47 1.53488 14.9835 1.53488 14.6592 1.81395L13.3618 2.93023V0.697674C13.3618 0.27907 13.0374 0 12.5509 0C12.0644 0 11.7401 0.27907 11.7401 0.697674V3.06977L10.4427 1.95349C10.1183 1.67442 9.63181 1.67442 9.30746 1.95349C8.98312 2.23256 8.98312 2.65116 9.30746 3.06977L10.1183 4.18605C10.767 4.74419 11.2535 5.5814 11.2535 6.4186C11.2535 7.25581 10.767 7.95349 9.95616 8.37209L9.79398 8.51163C8.98312 8.93023 8.01008 8.93023 7.19922 8.51163C6.38836 8.09302 5.73967 7.39535 5.57749 6.69767L4.76663 4.88372C4.60446 4.46512 4.11794 4.18605 3.63142 4.32558C3.30708 4.46512 2.98273 4.88372 3.1449 5.30233L3.63142 6.83721L1.361 5.72093C0.874485 5.44186 0.387966 5.5814 0.0636211 6C-0.0985516 6.27907 0.0636215 6.83721 0.387967 6.97674L2.65838 8.09302L0.874484 8.51163C0.387966 8.65116 0.0636217 9.06977 0.225794 9.48837C0.387967 9.76744 0.712312 10.0465 1.03666 10.0465C1.19883 10.0465 1.03666 10.0465 3.30707 9.48837C4.28011 9.2093 5.25315 9.34884 6.06401 9.76744C6.87487 10.186 7.36139 10.8837 7.36139 11.7209V12C7.36139 12.8372 6.87487 13.5349 6.06401 13.9535C5.25315 14.3721 4.28011 14.5116 3.30707 14.2326L1.361 13.9535C0.874485 13.814 0.387967 14.093 0.387967 14.5116C0.225794 14.9302 0.55014 15.3488 1.03666 15.4884L2.82056 15.907L0.550139 17.0233C-0.260724 17.4419 0.0636216 18.4186 1.03666 18.4186C1.361 18.4186 1.19883 18.4186 3.79359 17.1628L3.30707 18.6977C3.1449 19.1163 3.46925 19.5349 3.95577 19.6744C4.44228 19.814 4.9288 19.5349 4.9288 19.1163L5.41532 17.3023C5.57749 16.4651 6.22618 15.907 7.03705 15.4884C7.84791 15.0698 8.82095 15.0698 9.63181 15.4884L9.79398 15.6279C10.6048 16.0465 11.0914 16.7442 11.0914 17.5814C11.0914 18.4186 10.767 19.2558 9.95616 19.814L8.65877 20.9302C8.33443 21.2093 8.33443 21.6279 8.65877 22.0465C8.98312 22.3256 9.46964 22.3256 9.79398 22.0465L11.0914 20.9302V23.3023C11.0914 23.7209 11.4157 24 11.9022 24C12.3887 24 12.7131 23.7209 12.7131 23.3023V20.9302L14.0105 22.0465C14.1726 22.186 14.3348 22.3256 14.6592 22.3256C15.47 22.3256 15.7944 21.4884 15.3079 21.0698L13.8483 19.814C13.1996 19.2558 12.7131 18.4186 12.7131 17.5814C12.7131 16.7442 13.1996 16.0465 14.0105 15.6279L14.1726 15.4884C14.9835 15.0698 15.9565 15.0698 16.7674 15.4884C17.5783 15.907 18.227 16.6047 18.3891 17.3023L18.8757 19.1163C19.0378 19.3953 19.3622 19.6744 19.6865 19.6744C20.173 19.6744 20.6596 19.2558 20.4974 18.6977L20.0109 17.1628L22.2813 18.2791C22.7678 18.4186 23.2543 18.4186 23.4165 18C24.0652 17.5814 24.0652 17.1628 23.5787 16.8837ZM14.8213 12C14.8213 12.8372 14.3348 13.6744 13.3618 14.093C12.3887 14.5116 11.4157 14.5116 10.4427 14.093C9.63181 13.6744 8.98312 12.8372 8.98312 12C8.98312 11.1628 9.46964 10.3256 10.4427 9.90698C11.4157 9.48837 12.3887 9.48837 13.3618 9.90698C14.3348 10.186 14.8213 11.0233 14.8213 12Z" fill="#0C0C0C"/>
</svg>
